<svg xmlns="http://www.w3.org/2000/svg" viewBox="0 0 512 512">
  <path d="M302 328c31-13 55-31 73-54 18-22 27-47 27-73s-9-51-27-73c-18-23-42-41-73-54s-65-19-101-19-70 6-101 19-55 31-73 54a112 112 0 0 0-7 137c14 20 32 37 56 50a157 157 0 0 1-13 24 985 985 0 0 0-24 28l-1 2-1 1v5c0 3 1 5 3 6l6 3h1a239 239 0 0 0 104-41 287 287 0 0 0 151-15z"/>
  <path d="M491 338a112 112 0 0 0-1-130c-14-20-33-37-58-50a147 147 0 0 1-13 115c-12 23-31 44-54 61-22 16-48 28-76 37a302 302 0 0 1-113 12c38 25 83 37 135 37 16 0 33-1 50-4a240 240 0 0 0 104 41l6-2 4-6v-2-2l-1-2v-1a14 14 0 0 0-2-3 36 36 0 0 1-3-3 199 199 0 0 0-14-16 868 868 0 0 0-13-19l-6-12c23-14 42-31 55-51z"/>
</svg>
