<svg xmlns="http://www.w3.org/2000/svg" viewBox="0 0 447.7 447.7">
  <path d="M182.7 379.2a7.4 7.4 0 0 1-.5-4c.1-1-.5-1.8-2-2.5-1.6-.6-2.3-1.2-2.3-1.5 0-.4-1.1-.7-3.3-.9l-3.3-.3H82.2A44 44 0 0 1 50 356.6a44 44 0 0 1-13.5-32.3v-201A44 44 0 0 1 50 91.1a44 44 0 0 1 32.2-13.4h91.4c2.5 0 4.4-.7 5.8-1.9 1.5-1.2 2.4-3 2.9-5.6A48 48 0 0 0 183 56l-.3-5.8c0-2.4-.9-4.6-2.7-6.4a8.8 8.8 0 0 0-6.4-2.7H82.2c-22.6 0-42 8-58 24.1A79.2 79.2 0 0 0 0 123.3v201c0 22.7 8 42 24.1 58.1s35.5 24.2 58.1 24.2h91.4c2.5 0 4.4-.7 5.8-1.9 1.5-1.2 2.4-3 2.9-5.6a48.1 48.1 0 0 0 .7-14.2l-.3-5.7z"/>
  <path d="M442.2 211L287 55.7a17.6 17.6 0 0 0-12.8-5.5c-5 0-9.2 1.9-12.9 5.5a17.6 17.6 0 0 0-5.4 12.8v82.2H128c-5 0-9.2 1.9-12.8 5.5a17.6 17.6 0 0 0-5.5 12.8v109.7c0 4.9 1.8 9.2 5.5 12.8 3.6 3.6 7.9 5.4 12.8 5.4h128v82.3c0 4.9 1.7 9.2 5.3 12.8 3.7 3.6 8 5.4 12.9 5.4 5 0 9.2-1.8 12.8-5.4l155.3-155.3c3.7-3.6 5.5-8 5.5-12.9 0-5-1.8-9.2-5.5-12.8z"/>
</svg>
