<svg xmlns="http://www.w3.org/2000/svg" viewBox="0 0 439 439">
  <path d="M219 219c31 0 56-10 78-32 21-21 32-47 32-77 0-31-11-56-32-78-22-21-47-32-78-32s-56 11-77 32c-22 22-32 47-32 78 0 30 10 56 32 77 21 22 47 32 77 32z"/>
  <path d="M419 335a292 292 0 0 0-11-62c-3-10-7-19-13-28a75 75 0 0 0-42-38c-9-4-20-6-32-6l-12 6-21 14a135 135 0 0 1-107 14c-13-5-23-9-31-14a2784 2784 0 0 1-33-20c-12 0-22 2-32 6-9 4-18 9-24 15-7 6-13 14-18 23s-9 18-12 28a242 242 0 0 0-12 62l-1 30c0 22 7 40 21 54 14 13 32 20 56 20h249c23 0 42-7 55-20 14-14 21-32 21-54l-1-30z"/>
</svg>
